<?xml version="1.0" encoding="utf-8"?>

<!-- Uploaded to: SVG Repo, www.svgrepo.com, Generator: SVG Repo Mixer Tools -->
<svg fill="#000000" height="800px" width="800px" version="1.1" id="Icons" xmlns="http://www.w3.org/2000/svg" xmlns:xlink="http://www.w3.org/1999/xlink" 
	 viewBox="0 0 32 32" xml:space="preserve">
<path d="M31.7,15.7c0.4-0.4,0.4-1,0-1.4s-1-0.4-1.4,0L28.6,16H22c0-0.7-0.1-1.4-0.4-2H23c0.6,0,1-0.4,1-1s-0.4-1-1-1h-2.5
	c-0.9-1-2.1-1.7-3.5-1.9V7c0-0.6-0.4-1-1-1s-1,0.4-1,1v3.1c-1.4,0.2-2.6,0.9-3.5,1.9H9c-0.6,0-1,0.4-1,1s0.4,1,1,1h1.4
	c-0.2,0.6-0.4,1.3-0.4,2H3.4l-1.7-1.7c-0.4-0.4-1-0.4-1.4,0s-0.4,1,0,1.4l2,2c0,0,0,0,0,0C2.1,18.1,2,18.5,2,19c0,1.7,1.3,3,3,3
	s3-1.3,3-3c0-0.4-0.1-0.7-0.2-1H10v1c0,3.3,2.7,6,6,6s6-2.7,6-6v-1h2.2c-0.1,0.3-0.2,0.6-0.2,1c0,1.7,1.3,3,3,3s3-1.3,3-3
	c0-0.5-0.1-0.9-0.3-1.3c0,0,0,0,0,0L31.7,15.7z M18,17h-4c-0.6,0-1-0.4-1-1s0.4-1,1-1h4c0.6,0,1,0.4,1,1S18.6,17,18,17z"/>
</svg>