<?xml version="1.0" encoding="iso-8859-1"?>
<!-- Uploaded to: SVG Repo, www.svgrepo.com, Generator: SVG Repo Mixer Tools -->
<svg fill="#000000" height="800px" width="800px" version="1.1" id="Layer_1" xmlns="http://www.w3.org/2000/svg" xmlns:xlink="http://www.w3.org/1999/xlink" 
	 viewBox="0 0 512 512" xml:space="preserve">
<g>
	<g>
		<path d="M460.997,136.41c-18.458-18.851-42.304-30.656-68.127-33.936C375.286,42.435,319.529,0,256,0
			c-63.528,0-119.284,42.435-136.869,102.474c-25.824,3.28-49.67,15.085-68.128,33.936c-21.354,21.808-33.114,50.632-33.114,81.159
			c0,59.613,41.685,107.395,97.427,115.005V512h281.369V332.575c55.742-7.611,97.426-55.393,97.426-115.005
			C494.111,187.042,482.351,158.218,460.997,136.41z M365.338,480.653H146.663v-50.425h218.675V480.653z M381.012,302.286h-15.673
			v96.596h-38.807v-64.514h-31.347v64.514h-23.51v-64.514h-31.347v64.514h-23.51v-64.514h-31.347v64.514h-38.807v-96.596h-15.673
			c-45.844,0-81.754-37.212-81.754-84.716c0-45.635,37.115-83.614,82.735-84.661l12.514-0.287l2.488-12.267
			C157.432,68.78,203.285,31.347,256,31.347c52.367,0,97.945,36.946,108.799,87.991c0.226,7.129-0.122,47.282-35.695,56.697
			l8.021,30.303c26.557-7.03,45.206-25.178,53.93-52.483c2.202-6.89,3.475-13.473,4.203-19.168
			c38.368,8.055,67.507,42.452,67.507,82.882C462.764,265.074,426.854,302.286,381.012,302.286z"/>
	</g>
</g>
</svg>