<svg width="176" height="174" viewBox="0 0 176 174" fill="none" xmlns="http://www.w3.org/2000/svg">
<rect width="176" height="174" fill="white"/>
<g clip-path="url(#clip0_160_140)">
<path d="M31.3005 99.3151H20.1052C18.4697 99.3151 17.1385 100.645 17.1385 102.277V113.231H16.8487C16.1886 113.231 15.6534 113.765 15.6534 114.424V121.663C15.6534 122.323 16.1886 122.857 16.8487 122.857H17.1385V124.184C17.1385 125.818 18.4698 127.146 20.1052 127.146H35.3808C37.0153 127.146 38.3466 125.818 38.3466 124.184V106.326L31.3005 99.3151ZM21.363 119.819C21.7061 119.819 22.0865 119.745 22.3107 119.655L22.4819 120.541C22.2732 120.646 21.8031 120.758 21.1917 120.758C19.4533 120.758 18.5581 119.678 18.5581 118.248C18.5581 116.535 19.7817 115.582 21.3034 115.582C21.8929 115.582 22.3403 115.701 22.5416 115.804L22.3107 116.706C22.0792 116.609 21.7585 116.52 21.3557 116.52C20.4528 116.52 19.7517 117.064 19.7517 118.181C19.7517 119.186 20.3485 119.819 21.363 119.819ZM35.3807 125.332H20.1052C19.472 125.332 18.9562 124.817 18.9562 124.184V122.857H33.1961C33.8564 122.857 34.3917 122.323 34.3917 121.663V114.424C34.3917 113.765 33.8564 113.231 33.1961 113.231H18.9562V102.277C18.9562 101.646 19.472 101.131 20.1052 101.131L30.6209 101.12V105.001C30.6209 106.135 31.542 107.055 32.6782 107.055L36.4859 107.044L36.5287 124.184C36.5287 124.817 36.0139 125.332 35.3807 125.332ZM24.4838 118.576C23.6481 118.285 23.1034 117.823 23.1034 117.094C23.1034 116.236 23.8194 115.581 25.0058 115.581C25.5725 115.581 25.9908 115.701 26.2887 115.834L26.0354 116.751C25.8341 116.654 25.4759 116.512 24.9834 116.512C24.491 116.512 24.2523 116.736 24.2523 116.996C24.2523 117.316 24.5356 117.458 25.1848 117.704C26.0728 118.032 26.4905 118.494 26.4905 119.202C26.4905 120.043 25.8413 120.758 24.4613 120.758C23.8869 120.758 23.3197 120.609 23.0364 120.452L23.2677 119.514C23.5735 119.671 24.0436 119.827 24.5283 119.827C25.0505 119.827 25.3265 119.611 25.3265 119.283C25.3266 118.97 25.0879 118.791 24.4838 118.576ZM28.5143 118.576C27.6788 118.285 27.1339 117.823 27.1339 117.094C27.1339 116.236 27.85 115.581 29.0363 115.581C29.6036 115.581 30.0208 115.701 30.3196 115.834L30.066 116.751C29.8645 116.654 29.5065 116.512 29.014 116.512C28.5215 116.512 28.2828 116.736 28.2828 116.996C28.2828 117.316 28.5662 117.458 29.2154 117.704C30.1033 118.032 30.5212 118.494 30.5212 119.202C30.5212 120.043 29.872 120.758 28.492 120.758C27.9175 120.758 27.3503 120.609 27.0669 120.452L27.2984 119.514C27.6041 119.671 28.0742 119.827 28.5589 119.827C29.081 119.827 29.3571 119.611 29.3571 119.283C29.3571 118.97 29.1183 118.791 28.5143 118.576Z" fill="#2A7AE4"/>
</g>
<path d="M16.496 148.24C16.496 147.547 16.6187 146.864 16.864 146.192C17.12 145.509 17.488 144.901 17.968 144.368C18.448 143.835 19.0347 143.403 19.728 143.072C20.4213 142.741 21.2107 142.576 22.096 142.576C23.1413 142.576 24.0427 142.805 24.8 143.264C25.568 143.723 26.1387 144.32 26.512 145.056L24.816 146.224C24.6667 145.904 24.4853 145.637 24.272 145.424C24.0587 145.2 23.8293 145.024 23.584 144.896C23.3387 144.768 23.0827 144.677 22.816 144.624C22.5493 144.56 22.288 144.528 22.032 144.528C21.4773 144.528 20.992 144.64 20.576 144.864C20.1707 145.088 19.8293 145.381 19.552 145.744C19.2853 146.096 19.0827 146.501 18.944 146.96C18.8053 147.408 18.736 147.856 18.736 148.304C18.736 148.805 18.816 149.291 18.976 149.76C19.136 150.219 19.36 150.624 19.648 150.976C19.9467 151.328 20.2987 151.611 20.704 151.824C21.12 152.037 21.5733 152.144 22.064 152.144C22.32 152.144 22.5867 152.112 22.864 152.048C23.1413 151.984 23.4027 151.883 23.648 151.744C23.904 151.605 24.1387 151.429 24.352 151.216C24.5653 150.992 24.736 150.725 24.864 150.416L26.672 151.456C26.4907 151.883 26.2293 152.261 25.888 152.592C25.5573 152.912 25.1787 153.184 24.752 153.408C24.336 153.632 23.888 153.803 23.408 153.92C22.928 154.037 22.4587 154.096 22 154.096C21.1893 154.096 20.448 153.925 19.776 153.584C19.104 153.243 18.5227 152.8 18.032 152.256C17.552 151.701 17.1733 151.077 16.896 150.384C16.6293 149.68 16.496 148.965 16.496 148.24ZM34.9208 145.616C34.8461 145.541 34.7074 145.44 34.5048 145.312C34.3128 145.184 34.0728 145.061 33.7848 144.944C33.5074 144.816 33.2034 144.709 32.8728 144.624C32.5421 144.539 32.2061 144.496 31.8648 144.496C31.2568 144.496 30.8034 144.608 30.5048 144.832C30.2061 145.056 30.0568 145.371 30.0568 145.776C30.0568 146.011 30.1101 146.208 30.2168 146.368C30.3341 146.517 30.4994 146.651 30.7128 146.768C30.9261 146.885 31.1928 146.992 31.5128 147.088C31.8434 147.184 32.2221 147.285 32.6488 147.392C33.2034 147.541 33.7048 147.701 34.1528 147.872C34.6114 148.043 34.9954 148.256 35.3048 148.512C35.6248 148.768 35.8701 149.077 36.0408 149.44C36.2114 149.792 36.2968 150.229 36.2968 150.752C36.2968 151.36 36.1794 151.883 35.9448 152.32C35.7208 152.747 35.4114 153.093 35.0168 153.36C34.6328 153.627 34.1848 153.824 33.6728 153.952C33.1714 154.069 32.6434 154.128 32.0888 154.128C31.2354 154.128 30.3928 154 29.5608 153.744C28.7288 153.488 27.9821 153.125 27.3208 152.656L28.2968 150.752C28.3928 150.848 28.5634 150.976 28.8088 151.136C29.0648 151.285 29.3634 151.44 29.7048 151.6C30.0461 151.749 30.4248 151.877 30.8408 151.984C31.2568 152.091 31.6834 152.144 32.1208 152.144C33.3368 152.144 33.9448 151.755 33.9448 150.976C33.9448 150.731 33.8754 150.523 33.7368 150.352C33.5981 150.181 33.4008 150.032 33.1448 149.904C32.8888 149.776 32.5794 149.659 32.2168 149.552C31.8541 149.445 31.4488 149.328 31.0008 149.2C30.4568 149.051 29.9821 148.891 29.5768 148.72C29.1821 148.539 28.8514 148.331 28.5848 148.096C28.3181 147.851 28.1154 147.573 27.9768 147.264C27.8488 146.944 27.7848 146.565 27.7848 146.128C27.7848 145.552 27.8914 145.04 28.1048 144.592C28.3181 144.144 28.6114 143.771 28.9848 143.472C29.3688 143.173 29.8114 142.949 30.3128 142.8C30.8141 142.64 31.3528 142.56 31.9288 142.56C32.7288 142.56 33.4648 142.688 34.1368 142.944C34.8088 143.189 35.3954 143.483 35.8968 143.824L34.9208 145.616ZM44.7333 145.616C44.6586 145.541 44.5199 145.44 44.3173 145.312C44.1253 145.184 43.8853 145.061 43.5973 144.944C43.3199 144.816 43.0159 144.709 42.6853 144.624C42.3546 144.539 42.0186 144.496 41.6773 144.496C41.0693 144.496 40.6159 144.608 40.3173 144.832C40.0186 145.056 39.8693 145.371 39.8693 145.776C39.8693 146.011 39.9226 146.208 40.0293 146.368C40.1466 146.517 40.3119 146.651 40.5253 146.768C40.7386 146.885 41.0053 146.992 41.3253 147.088C41.6559 147.184 42.0346 147.285 42.4613 147.392C43.0159 147.541 43.5173 147.701 43.9653 147.872C44.4239 148.043 44.8079 148.256 45.1173 148.512C45.4373 148.768 45.6826 149.077 45.8533 149.44C46.0239 149.792 46.1093 150.229 46.1093 150.752C46.1093 151.36 45.9919 151.883 45.7573 152.32C45.5333 152.747 45.2239 153.093 44.8293 153.36C44.4453 153.627 43.9973 153.824 43.4853 153.952C42.9839 154.069 42.4559 154.128 41.9013 154.128C41.0479 154.128 40.2053 154 39.3733 153.744C38.5413 153.488 37.7946 153.125 37.1333 152.656L38.1093 150.752C38.2053 150.848 38.3759 150.976 38.6213 151.136C38.8773 151.285 39.1759 151.44 39.5173 151.6C39.8586 151.749 40.2373 151.877 40.6533 151.984C41.0693 152.091 41.4959 152.144 41.9333 152.144C43.1493 152.144 43.7573 151.755 43.7573 150.976C43.7573 150.731 43.6879 150.523 43.5493 150.352C43.4106 150.181 43.2133 150.032 42.9573 149.904C42.7013 149.776 42.3919 149.659 42.0293 149.552C41.6666 149.445 41.2613 149.328 40.8133 149.2C40.2693 149.051 39.7946 148.891 39.3893 148.72C38.9946 148.539 38.6639 148.331 38.3973 148.096C38.1306 147.851 37.9279 147.573 37.7893 147.264C37.6613 146.944 37.5973 146.565 37.5973 146.128C37.5973 145.552 37.7039 145.04 37.9173 144.592C38.1306 144.144 38.4239 143.771 38.7973 143.472C39.1813 143.173 39.6239 142.949 40.1253 142.8C40.6266 142.64 41.1653 142.56 41.7413 142.56C42.5413 142.56 43.2773 142.688 43.9493 142.944C44.6213 143.189 45.2079 143.483 45.7093 143.824L44.7333 145.616Z" fill="#464646"/>
<defs>
<clipPath id="clip0_160_140">
<rect width="22" height="35.5385" fill="white" transform="translate(16 95.4615)"/>
</clipPath>
</defs>
</svg>
