<svg width="176" height="174" viewBox="0 0 176 174" fill="none" xmlns="http://www.w3.org/2000/svg">
<rect width="176" height="174" fill="white"/>
<path d="M16 99L18.125 123.75L27.9375 127L37.8125 123.75L40 99H16ZM35.25 107H23.75L24 110.125H35L34.125 119.375L28 121.062H27.9375L21.75 119.375L21.375 114.625H24.375L24.625 117L27.9375 117.938L31.3125 117L31.6875 113.125H21.25L20.4375 104.062H35.5L35.25 107Z" fill="#2A7AE4"/>
<path d="M26.736 142.64V154H24.544V149.152H19.392V154H17.184V142.64H19.392V147.232H24.544V142.64H26.736ZM33.9219 153.568C33.6339 153.696 33.2819 153.824 32.8659 153.952C32.4499 154.08 32.0125 154.144 31.5539 154.144C31.2552 154.144 30.9725 154.107 30.7059 154.032C30.4499 153.957 30.2205 153.84 30.0179 153.68C29.8259 153.509 29.6712 153.296 29.5539 153.04C29.4365 152.773 29.3779 152.453 29.3779 152.08V147.264H28.2739V145.616H29.3779V142.896H31.5219V145.616H33.2819V147.264H31.5219V151.36C31.5219 151.659 31.5965 151.872 31.7459 152C31.9059 152.117 32.0979 152.176 32.3219 152.176C32.5459 152.176 32.7645 152.139 32.9779 152.064C33.1912 151.989 33.3619 151.925 33.4899 151.872L33.9219 153.568ZM48.0625 154H45.9185V149.296C45.9185 148.624 45.8012 148.133 45.5665 147.824C45.3425 147.515 45.0278 147.36 44.6225 147.36C44.1958 147.36 43.7958 147.525 43.4225 147.856C43.0492 148.176 42.7825 148.597 42.6225 149.12V154H40.4785V149.296C40.4785 148.624 40.3612 148.133 40.1265 147.824C39.9025 147.515 39.5878 147.36 39.1825 147.36C38.7665 147.36 38.3665 147.52 37.9825 147.84C37.6092 148.16 37.3425 148.581 37.1825 149.104V154H35.0385V145.616H36.9745V147.168C37.2838 146.624 37.7052 146.208 38.2385 145.92C38.7825 145.621 39.4012 145.472 40.0945 145.472C40.7985 145.472 41.3425 145.643 41.7265 145.984C42.1105 146.325 42.3558 146.747 42.4625 147.248C42.8038 146.672 43.2358 146.235 43.7585 145.936C44.2812 145.627 44.8785 145.472 45.5505 145.472C46.0625 145.472 46.4838 145.568 46.8145 145.76C47.1452 145.952 47.4012 146.203 47.5825 146.512C47.7638 146.821 47.8865 147.173 47.9505 147.568C48.0252 147.963 48.0625 148.363 48.0625 148.768V154ZM49.9131 142.32H52.0571V151.312C52.0571 151.621 52.1318 151.861 52.2811 152.032C52.4305 152.203 52.6438 152.288 52.9211 152.288C53.0491 152.288 53.1878 152.267 53.3371 152.224C53.4971 152.181 53.6465 152.128 53.7851 152.064L54.0731 153.696C53.7851 153.835 53.4491 153.941 53.0651 154.016C52.6811 154.091 52.3345 154.128 52.0251 154.128C51.3531 154.128 50.8305 153.952 50.4571 153.6C50.0945 153.237 49.9131 152.725 49.9131 152.064V142.32ZM62.015 148.896C62.5483 148.896 63.0443 148.987 63.503 149.168C63.9617 149.339 64.3563 149.584 64.687 149.904C65.0177 150.224 65.2737 150.608 65.455 151.056C65.647 151.504 65.743 152 65.743 152.544C65.743 153.12 65.6363 153.643 65.423 154.112C65.2203 154.581 64.9323 154.981 64.559 155.312C64.1857 155.653 63.743 155.915 63.231 156.096C62.719 156.288 62.1643 156.384 61.567 156.384C60.735 156.384 59.9883 156.208 59.327 155.856C58.6763 155.504 58.1803 155.024 57.839 154.416L59.071 153.136C59.3697 153.552 59.743 153.883 60.191 154.128C60.639 154.373 61.103 154.496 61.583 154.496C62.159 154.496 62.6283 154.325 62.991 153.984C63.3643 153.632 63.551 153.168 63.551 152.592C63.551 152.037 63.375 151.589 63.023 151.248C62.6817 150.907 62.2443 150.736 61.711 150.736C61.359 150.736 61.0283 150.816 60.719 150.976C60.4203 151.136 60.1803 151.355 59.999 151.632H58.127C58.127 151.6 58.1483 151.483 58.191 151.28C58.2337 151.067 58.287 150.8 58.351 150.48C58.415 150.149 58.4843 149.787 58.559 149.392C58.6337 148.987 58.7137 148.576 58.799 148.16C58.991 147.179 59.2043 146.08 59.439 144.864H65.039V146.816H60.991L60.527 149.36C60.655 149.221 60.8417 149.109 61.087 149.024C61.343 148.939 61.6523 148.896 62.015 148.896Z" fill="#464646"/>
</svg>
