<svg width="176" height="174" viewBox="0 0 176 174" fill="none" xmlns="http://www.w3.org/2000/svg">
<rect width="176" height="174" fill="white"/>
<path d="M41 99H19C17.3125 99 16 100.375 16 102V124C16 125.688 17.3125 127 19 127H41C42.625 127 44 125.688 44 124V102C44 100.375 42.625 99 41 99ZM31.1875 120.875C31.1875 123.562 29.625 124.812 27.25 124.812C25.1875 124.812 23.9375 123.75 23.3125 122.438L25.5 121.125C25.875 121.875 26.25 122.5 27.1875 122.5C28 122.5 28.5625 122.125 28.5625 120.812V111.875H31.1875V120.875ZM37.4375 124.812C35 124.812 33.4375 123.688 32.625 122.125L34.8125 120.938C35.375 121.812 36.0625 122.5 37.375 122.5C38.4375 122.5 39.1875 121.938 39.1875 121.188C39.1875 120.312 38.4375 120 37.25 119.438L36.5625 119.188C34.6875 118.375 33.4375 117.375 33.4375 115.188C33.4375 113.25 34.9375 111.75 37.3125 111.75C38.9375 111.75 40.1875 112.312 41 113.812L39 115.125C38.5 114.375 38.0625 114 37.25 114C36.5 114 36 114.5 36 115.125C36 115.938 36.5 116.25 37.625 116.75L38.3125 117.062C40.5625 118 41.8125 119 41.8125 121.188C41.8125 123.562 39.9375 124.812 37.4375 124.812Z" fill="#2A7AE4"/>
<path d="M16.608 151.68C16.7573 151.787 17.008 151.904 17.36 152.032C17.712 152.16 18.1173 152.224 18.576 152.224C19.024 152.224 19.3813 152.149 19.648 152C19.9147 151.84 20.1173 151.6 20.256 151.28C20.3947 150.96 20.4853 150.565 20.528 150.096C20.5707 149.616 20.592 149.056 20.592 148.416V142.64H22.8V148.416C22.8 149.28 22.752 150.069 22.656 150.784C22.5707 151.488 22.3787 152.091 22.08 152.592C21.792 153.093 21.3707 153.483 20.816 153.76C20.2613 154.037 19.5147 154.176 18.576 154.176C17.616 154.176 16.7947 153.941 16.112 153.472L16.608 151.68ZM27.014 154.16C26.6087 154.16 26.23 154.096 25.878 153.968C25.526 153.829 25.222 153.643 24.966 153.408C24.71 153.163 24.5073 152.88 24.358 152.56C24.2193 152.24 24.15 151.888 24.15 151.504C24.15 151.109 24.2353 150.747 24.406 150.416C24.5873 150.075 24.8327 149.787 25.142 149.552C25.462 149.317 25.8407 149.136 26.278 149.008C26.7153 148.869 27.1953 148.8 27.718 148.8C28.0913 148.8 28.454 148.832 28.806 148.896C29.1687 148.96 29.4887 149.051 29.766 149.168V148.688C29.766 148.133 29.606 147.707 29.286 147.408C28.9767 147.109 28.5127 146.96 27.894 146.96C27.446 146.96 27.0087 147.04 26.582 147.2C26.1553 147.36 25.718 147.595 25.27 147.904L24.614 146.544C25.6913 145.829 26.854 145.472 28.102 145.472C29.3073 145.472 30.2407 145.771 30.902 146.368C31.574 146.955 31.91 147.808 31.91 148.928V151.536C31.91 151.76 31.9473 151.92 32.022 152.016C32.1073 152.112 32.2407 152.165 32.422 152.176V154C32.0593 154.075 31.7447 154.112 31.478 154.112C31.0727 154.112 30.758 154.021 30.534 153.84C30.3207 153.659 30.1873 153.419 30.134 153.12L30.086 152.656C29.7127 153.147 29.2593 153.52 28.726 153.776C28.1927 154.032 27.622 154.16 27.014 154.16ZM27.622 152.592C27.9847 152.592 28.326 152.528 28.646 152.4C28.9767 152.272 29.2327 152.101 29.414 151.888C29.6487 151.707 29.766 151.504 29.766 151.28V150.32C29.51 150.224 29.2327 150.149 28.934 150.096C28.6353 150.032 28.3473 150 28.07 150C27.5153 150 27.062 150.128 26.71 150.384C26.358 150.629 26.182 150.944 26.182 151.328C26.182 151.691 26.3207 151.995 26.598 152.24C26.8753 152.475 27.2167 152.592 27.622 152.592ZM35.9508 154L32.8628 145.616H35.0707L37.1988 152.256L39.3428 145.616H41.3588L38.2708 154H35.9508ZM44.5609 154.16C44.1555 154.16 43.7769 154.096 43.4249 153.968C43.0729 153.829 42.7689 153.643 42.5129 153.408C42.2569 153.163 42.0542 152.88 41.9049 152.56C41.7662 152.24 41.6969 151.888 41.6969 151.504C41.6969 151.109 41.7822 150.747 41.9529 150.416C42.1342 150.075 42.3795 149.787 42.6889 149.552C43.0089 149.317 43.3875 149.136 43.8249 149.008C44.2622 148.869 44.7422 148.8 45.2649 148.8C45.6382 148.8 46.0009 148.832 46.3529 148.896C46.7155 148.96 47.0355 149.051 47.3129 149.168V148.688C47.3129 148.133 47.1529 147.707 46.8329 147.408C46.5235 147.109 46.0595 146.96 45.4409 146.96C44.9929 146.96 44.5555 147.04 44.1289 147.2C43.7022 147.36 43.2649 147.595 42.8169 147.904L42.1609 146.544C43.2382 145.829 44.4009 145.472 45.6489 145.472C46.8542 145.472 47.7875 145.771 48.4489 146.368C49.1209 146.955 49.4569 147.808 49.4569 148.928V151.536C49.4569 151.76 49.4942 151.92 49.5689 152.016C49.6542 152.112 49.7875 152.165 49.9689 152.176V154C49.6062 154.075 49.2915 154.112 49.0249 154.112C48.6195 154.112 48.3049 154.021 48.0809 153.84C47.8675 153.659 47.7342 153.419 47.6809 153.12L47.6329 152.656C47.2595 153.147 46.8062 153.52 46.2729 153.776C45.7395 154.032 45.1689 154.16 44.5609 154.16ZM45.1689 152.592C45.5315 152.592 45.8729 152.528 46.1929 152.4C46.5235 152.272 46.7795 152.101 46.9609 151.888C47.1955 151.707 47.3129 151.504 47.3129 151.28V150.32C47.0569 150.224 46.7795 150.149 46.4809 150.096C46.1822 150.032 45.8942 150 45.6169 150C45.0622 150 44.6089 150.128 44.2569 150.384C43.9049 150.629 43.7289 150.944 43.7289 151.328C43.7289 151.691 43.8675 151.995 44.1449 152.24C44.4222 152.475 44.7635 152.592 45.1689 152.592ZM54.6284 154.16C53.9244 154.16 53.2364 154.048 52.5644 153.824C51.8924 153.6 51.3164 153.28 50.8364 152.864L51.6364 151.52C52.1484 151.883 52.6444 152.16 53.1244 152.352C53.615 152.533 54.1004 152.624 54.5804 152.624C55.007 152.624 55.343 152.544 55.5884 152.384C55.8337 152.224 55.9564 151.995 55.9564 151.696C55.9564 151.397 55.8124 151.179 55.5244 151.04C55.2364 150.901 54.767 150.741 54.1164 150.56C53.5724 150.411 53.1084 150.267 52.7244 150.128C52.3404 149.989 52.031 149.835 51.7964 149.664C51.5617 149.483 51.391 149.28 51.2844 149.056C51.1777 148.821 51.1244 148.544 51.1244 148.224C51.1244 147.797 51.2044 147.413 51.3644 147.072C51.535 146.731 51.7697 146.443 52.0684 146.208C52.367 145.963 52.7137 145.776 53.1084 145.648C53.5137 145.52 53.951 145.456 54.4204 145.456C55.0497 145.456 55.6364 145.547 56.1804 145.728C56.735 145.909 57.2417 146.203 57.7004 146.608L56.8364 147.904C56.4097 147.584 55.9937 147.349 55.5884 147.2C55.1937 147.051 54.799 146.976 54.4044 146.976C54.0417 146.976 53.7377 147.051 53.4924 147.2C53.247 147.349 53.1244 147.589 53.1244 147.92C53.1244 148.069 53.151 148.192 53.2044 148.288C53.2684 148.384 53.3644 148.469 53.4924 148.544C53.6204 148.619 53.7857 148.693 53.9884 148.768C54.2017 148.832 54.463 148.901 54.7724 148.976C55.3484 149.125 55.839 149.275 56.2444 149.424C56.6604 149.573 56.9964 149.744 57.2524 149.936C57.519 150.128 57.711 150.352 57.8284 150.608C57.9564 150.853 58.0204 151.152 58.0204 151.504C58.0204 152.325 57.7164 152.976 57.1084 153.456C56.5004 153.925 55.6737 154.16 54.6284 154.16ZM58.8855 149.808C58.8855 149.221 58.9868 148.667 59.1895 148.144C59.3922 147.621 59.6855 147.163 60.0695 146.768C60.4535 146.373 60.9175 146.059 61.4615 145.824C62.0055 145.589 62.6188 145.472 63.3015 145.472C64.2188 145.472 64.9975 145.669 65.6375 146.064C66.2882 146.459 66.7735 146.976 67.0935 147.616L64.9975 148.256C64.8162 147.947 64.5762 147.712 64.2775 147.552C63.9788 147.381 63.6482 147.296 63.2855 147.296C62.9762 147.296 62.6882 147.36 62.4215 147.488C62.1548 147.605 61.9202 147.776 61.7175 148C61.5255 148.213 61.3708 148.475 61.2535 148.784C61.1468 149.093 61.0935 149.435 61.0935 149.808C61.0935 150.181 61.1522 150.523 61.2695 150.832C61.3868 151.141 61.5415 151.408 61.7335 151.632C61.9362 151.856 62.1708 152.032 62.4375 152.16C62.7042 152.277 62.9868 152.336 63.2855 152.336C63.6695 152.336 64.0215 152.24 64.3415 152.048C64.6722 151.856 64.9015 151.621 65.0295 151.344L67.1255 151.984C66.8375 152.624 66.3628 153.147 65.7015 153.552C65.0402 153.957 64.2455 154.16 63.3175 154.16C62.6348 154.16 62.0215 154.043 61.4775 153.808C60.9335 153.573 60.4695 153.259 60.0855 152.864C59.7015 152.459 59.4028 151.995 59.1895 151.472C58.9868 150.939 58.8855 150.384 58.8855 149.808ZM73.4368 147.472C72.7861 147.483 72.2048 147.611 71.6927 147.856C71.1808 148.091 70.8128 148.448 70.5888 148.928V154H68.4448V145.616H70.4128V147.408C70.5621 147.12 70.7381 146.864 70.9408 146.64C71.1434 146.405 71.3621 146.203 71.5968 146.032C71.8314 145.861 72.0661 145.733 72.3008 145.648C72.5461 145.552 72.7808 145.504 73.0048 145.504C73.1221 145.504 73.2074 145.504 73.2608 145.504C73.3248 145.504 73.3834 145.509 73.4368 145.52V147.472ZM74.6323 154V145.616H76.7763V154H74.6323ZM74.6323 144.448V142.32H76.7763V144.448H74.6323ZM83.7344 154.16C83.073 154.16 82.497 154.016 82.0064 153.728C81.5157 153.429 81.1317 153.029 80.8544 152.528V157.408H78.7104V145.616H80.5824V147.056C80.8917 146.565 81.2917 146.181 81.7824 145.904C82.273 145.616 82.8384 145.472 83.4784 145.472C84.0437 145.472 84.5664 145.589 85.0464 145.824C85.5264 146.048 85.937 146.357 86.2784 146.752C86.6304 147.136 86.9024 147.595 87.0944 148.128C87.297 148.651 87.3984 149.205 87.3984 149.792C87.3984 150.4 87.3077 150.971 87.1264 151.504C86.945 152.037 86.689 152.501 86.3584 152.896C86.0384 153.291 85.6544 153.6 85.2064 153.824C84.7584 154.048 84.2677 154.16 83.7344 154.16ZM83.0144 152.336C83.3344 152.336 83.6277 152.267 83.8944 152.128C84.1717 151.989 84.4064 151.803 84.5984 151.568C84.7904 151.333 84.9397 151.061 85.0464 150.752C85.153 150.443 85.2064 150.123 85.2064 149.792C85.2064 149.44 85.1477 149.115 85.0304 148.816C84.913 148.507 84.7477 148.24 84.5344 148.016C84.3317 147.792 84.0864 147.616 83.7984 147.488C83.521 147.36 83.217 147.296 82.8864 147.296C82.6837 147.296 82.4757 147.333 82.2624 147.408C82.049 147.472 81.8517 147.568 81.6704 147.696C81.489 147.824 81.3237 147.973 81.1744 148.144C81.0357 148.315 80.929 148.501 80.8544 148.704V150.672C81.0464 151.152 81.3397 151.552 81.7344 151.872C82.129 152.181 82.5557 152.336 83.0144 152.336ZM93.7656 153.568C93.4776 153.696 93.1256 153.824 92.7096 153.952C92.2936 154.08 91.8563 154.144 91.3976 154.144C91.099 154.144 90.8163 154.107 90.5496 154.032C90.2936 153.957 90.0643 153.84 89.8616 153.68C89.6696 153.509 89.515 153.296 89.3976 153.04C89.2803 152.773 89.2216 152.453 89.2216 152.08V147.264H88.1176V145.616H89.2216V142.896H91.3656V145.616H93.1256V147.264H91.3656V151.36C91.3656 151.659 91.4403 151.872 91.5896 152C91.7496 152.117 91.9416 152.176 92.1656 152.176C92.3896 152.176 92.6083 152.139 92.8216 152.064C93.035 151.989 93.2056 151.925 93.3336 151.872L93.7656 153.568Z" fill="#464646"/>
</svg>
