<?xml version="1.0" encoding="iso-8859-1"?>
<!-- Uploaded to: SVG Repo, www.svgrepo.com, Generator: SVG Repo Mixer Tools -->
<svg fill="#000000" height="800px" width="800px" version="1.1" id="Layer_1" xmlns="http://www.w3.org/2000/svg" xmlns:xlink="http://www.w3.org/1999/xlink" 
	 viewBox="0 0 512 512" xml:space="preserve">
<g>
	<g>
		<path d="M447.067,264.742c-0.179-0.867-0.441-1.735-0.785-2.575c-0.344-0.826-0.772-1.625-1.267-2.368
			c-0.496-0.757-1.074-1.459-1.707-2.093c-0.633-0.635-1.336-1.213-2.093-1.707c-0.743-0.509-1.542-0.922-2.382-1.267
			c-0.826-0.359-1.693-0.62-2.575-0.799c-1.776-0.358-3.607-0.358-5.383,0c-0.867,0.179-1.735,0.439-2.575,0.799
			c-0.826,0.344-1.625,0.757-2.368,1.267c-0.757,0.494-1.459,1.073-2.093,1.707c-0.633,0.633-1.212,1.335-1.721,2.093
			c-0.496,0.743-0.909,1.542-1.253,2.368c-0.344,0.84-0.62,1.707-0.785,2.575c-0.179,0.895-0.275,1.805-0.275,2.698
			c0,0.895,0.096,1.805,0.275,2.685c0.165,0.881,0.441,1.749,0.785,2.575c0.344,0.84,0.771,1.637,1.267,2.38
			c0.496,0.759,1.074,1.461,1.707,2.094s1.336,1.212,2.093,1.707c0.743,0.494,1.542,0.922,2.368,1.267
			c0.84,0.344,1.707,0.604,2.575,0.783c0.895,0.18,1.805,0.275,2.698,0.275c0.895,0,1.805-0.095,2.685-0.275
			c0.881-0.179,1.75-0.439,2.575-0.783c0.84-0.344,1.638-0.772,2.382-1.267c0.757-0.496,1.459-1.074,2.093-1.707
			s1.212-1.335,1.707-2.094c0.494-0.743,0.922-1.541,1.267-2.38c0.344-0.827,0.604-1.693,0.785-2.575
			c0.179-0.881,0.274-1.79,0.274-2.685C447.341,266.547,447.246,265.637,447.067,264.742z"/>
	</g>
</g>
<g>
	<g>
		<path d="M390.212,90.872c-2.281-2.245-4.609-4.425-6.983-6.541c-0.96-0.858-1.932-1.696-2.905-2.533
			c-0.186-0.16-0.368-0.324-0.553-0.482c-29.764-25.363-66.055-40.745-104.969-44.499c-0.007,0-0.015-0.001-0.022-0.001
			c-1.525-0.146-3.055-0.278-4.589-0.39c-0.281-0.021-0.563-0.033-0.845-0.054c-1.272-0.087-2.546-0.169-3.823-0.231
			c-0.661-0.032-1.324-0.048-1.985-0.074c-0.913-0.034-1.826-0.077-2.741-0.099c-1.594-0.039-3.193-0.059-4.794-0.059
			c-52.408,0-101.321,20.785-137.724,58.525c-0.358,0.372-0.687,0.761-0.995,1.162C84.688,129.922,64.66,176.291,64.66,227.252
			v88.089H53.708C24.092,315.342,0,339.434,0,369.047v36.349c0,29.613,24.092,53.705,53.705,53.705h10.954v3.223
			c0,7.602,6.165,13.768,13.768,13.768h44.068c24.986,0,45.314-20.328,45.314-45.314v-87.112c0-24.986-20.328-45.314-45.314-45.314
			H92.193v-71.099c0-39.056,13.747-74.955,36.646-103.135l25.725,25.725c4.48,4.477,11.437,5.321,16.854,2.047
			c25.447-15.374,54.695-23.5,84.583-23.5s59.135,8.126,84.583,23.5c2.208,1.335,4.669,1.984,7.115,1.984
			c3.558,0,7.083-1.378,9.738-4.033l25.582-25.582c22.403,27.509,36.125,62.329,36.765,100.16
			c0.128,7.524,6.267,13.535,13.762,13.535c0.078,0,0.157,0,0.237-0.001c7.603-0.129,13.662-6.396,13.534-13.999
			C446.463,173.537,426.182,126.274,390.212,90.872z M64.659,431.566H53.705v0c-14.429,0-26.17-11.74-26.17-26.17v-36.349
			c0-14.429,11.74-26.17,26.17-26.17h10.952v31.356c0,0,0.001,0.018,0.001,0.027V431.566z M92.194,445.332V329.108v-3.222h30.3
			c9.803,0,17.778,7.976,17.778,17.778v87.112c0,9.803-7.976,17.778-17.778,17.778h-30.3V445.332z M345.367,122.972
			c-27.429-14.5-58.105-22.119-89.367-22.119c-31.262,0-61.937,7.619-89.365,22.118l-18.708-18.706
			c25.878-22.768,58.966-37.522,95.354-40.33c0.077-0.005,0.153-0.012,0.23-0.018c1.187-0.09,2.378-0.162,3.571-0.227
			c0.24-0.012,0.478-0.029,0.717-0.04c1.079-0.054,2.162-0.091,3.246-0.124c0.299-0.008,0.598-0.023,0.898-0.029
			c1.349-0.033,2.701-0.052,4.059-0.052c1.356,0,2.708,0.018,4.056,0.052c0.176,0.004,0.351,0.012,0.527,0.018
			c39.369,1.104,75.486,16.388,103.336,40.904L345.367,122.972z"/>
	</g>
</g>
<g>
	<g>
		<path d="M458.295,315.342h-10.954v-3.223c0-7.602-6.165-13.768-13.768-13.768h-44.068c-24.986,0-45.314,20.328-45.314,45.314
			v87.112c0,24.986,20.328,45.314,45.314,45.314h44.068c7.602,0,13.768-6.165,13.768-13.768V459.1h10.954
			c29.613,0,53.705-24.092,53.705-53.705v-36.349C512,339.434,487.908,315.342,458.295,315.342z M419.806,329.111v116.224v3.222
			h-30.3c-9.803,0-17.778-7.976-17.778-17.778v-87.112c0-9.803,7.976-17.778,17.778-17.778h30.3V329.111z M484.465,405.396
			c0,14.429-11.74,26.17-26.17,26.17h-10.954v-88.689h10.954c14.429,0,26.17,11.74,26.17,26.17V405.396z"/>
	</g>
</g>
</svg>