<svg width="176" height="174" viewBox="0 0 176 174" fill="none" xmlns="http://www.w3.org/2000/svg">
<rect width="176" height="174" fill="white"/>
<path d="M42.125 108.125C41.75 108 41.4375 107.875 41.125 107.812C41.125 107.562 41.1875 107.312 41.25 107.062C42 103.375 41.5 100.375 39.8125 99.375C38.1875 98.4375 35.5 99.4375 32.75 101.812C32.5 102 32.25 102.25 32 102.5C31.8125 102.312 31.625 102.188 31.5 102C28.625 99.5 25.75 98.4375 24.0625 99.4375C22.4375 100.375 21.9375 103.188 22.625 106.75C22.6875 107.062 22.75 107.438 22.875 107.75C22.4375 107.875 22.0625 108 21.6875 108.125C18.375 109.312 16 111.125 16 113C16 114.938 18.5 116.938 22 118.125C22.25 118.188 22.5625 118.312 22.8125 118.375C22.75 118.75 22.6875 119.125 22.5625 119.5C21.9375 122.938 22.4375 125.688 24.0625 126.625C25.75 127.625 28.625 126.625 31.375 124.188C31.5625 124 31.8125 123.812 32 123.625C32.3125 123.875 32.5625 124.125 32.875 124.375C35.5625 126.688 38.1875 127.625 39.8125 126.688C41.5 125.688 42.0625 122.75 41.375 119.125C41.3125 118.875 41.25 118.562 41.1875 118.312C41.375 118.25 41.5625 118.188 41.75 118.125C45.375 116.938 48 115 48 113C48 111.125 45.5 109.25 42.125 108.125ZM33.625 102.812C36 100.75 38.125 100 39.125 100.562C40.1875 101.125 40.625 103.625 39.9375 106.812C39.875 107.062 39.875 107.25 39.8125 107.438C38.375 107.125 37 106.938 35.5625 106.812C34.75 105.625 33.875 104.5 32.9375 103.438C33.1875 103.25 33.375 103 33.625 102.812ZM26.4375 116.25C26.75 116.812 27.0625 117.312 27.4375 117.875C26.4375 117.75 25.4375 117.625 24.5 117.375C24.8125 116.5 25.125 115.562 25.5 114.625C25.8125 115.188 26.125 115.688 26.4375 116.25ZM24.5 108.75C25.4375 108.5 26.375 108.375 27.375 108.25C27.0625 108.75 26.75 109.312 26.4375 109.812C26.125 110.375 25.8125 110.875 25.5 111.438C25.125 110.5 24.8125 109.625 24.5 108.75ZM26.25 113.062C26.625 112.188 27.125 111.312 27.5625 110.5C28.0625 109.688 28.5625 108.875 29.125 108.062C30.0625 108 31 107.938 32 107.938C32.9375 107.938 33.9375 108 34.8125 108.062C35.375 108.875 35.875 109.688 36.375 110.5C36.8125 111.312 37.3125 112.125 37.6875 113C37.3125 113.875 36.875 114.75 36.375 115.562C35.875 116.375 35.375 117.188 34.875 118C33.9375 118.062 32.9375 118.125 32 118.125C31 118.125 30.0625 118.062 29.125 118C28.5625 117.188 28.0625 116.375 27.5625 115.562C27.125 114.75 26.6875 113.875 26.25 113.062ZM37.5 116.25C37.875 115.688 38.125 115.125 38.4375 114.562C38.8125 115.5 39.1875 116.375 39.5 117.312C38.5 117.562 37.5625 117.75 36.5625 117.812C36.875 117.312 37.1875 116.75 37.5 116.25ZM38.4375 111.438C38.125 110.875 37.8125 110.375 37.5 109.812C37.1875 109.312 36.875 108.75 36.5625 108.25C37.5625 108.375 38.5625 108.562 39.4375 108.75C39.125 109.688 38.8125 110.562 38.4375 111.438ZM32 104.438C32.625 105.125 33.25 105.875 33.8125 106.688C32.625 106.625 31.375 106.625 30.125 106.688C30.75 105.875 31.375 105.125 32 104.438ZM24.75 100.562C25.8125 100 28.125 100.875 30.5625 103C30.75 103.188 30.875 103.312 31.0625 103.438C30.0625 104.5 29.1875 105.625 28.375 106.812C26.9375 106.938 25.5625 107.125 24.1875 107.438C24.0625 107.125 24 106.812 23.9375 106.438C23.375 103.438 23.75 101.188 24.75 100.562ZM23.1875 117.062C22.9375 117 22.6875 116.938 22.4375 116.812C21.125 116.375 19.5625 115.75 18.5 114.875C17.875 114.438 17.4375 113.75 17.3125 113C17.3125 111.875 19.3125 110.375 22.125 109.375C22.5 109.25 22.875 109.188 23.25 109.062C23.625 110.438 24.1875 111.75 24.75 113.062C24.125 114.312 23.625 115.688 23.1875 117.062ZM30.5 123.188C29.4375 124.125 28.25 124.875 26.9375 125.375C26.25 125.75 25.5 125.75 24.75 125.5C23.75 124.875 23.375 122.688 23.9375 119.75C24 119.375 24.0625 119 24.125 118.688C25.5625 119 26.9375 119.188 28.375 119.312C29.1875 120.438 30.125 121.562 31.0625 122.625C30.875 122.812 30.6875 123 30.5 123.188ZM32 121.688C31.375 121 30.75 120.25 30.125 119.375C30.75 119.438 31.375 119.438 32 119.438C32.625 119.438 33.25 119.438 33.875 119.375C33.3125 120.188 32.6875 120.938 32 121.688ZM40.1875 123.562C40.125 124.312 39.75 125 39.1875 125.5C38.1875 126.062 36.0625 125.312 33.75 123.375C33.5 123.125 33.25 122.875 32.9375 122.625C33.9375 121.562 34.8125 120.5 35.625 119.312C37.0625 119.188 38.4375 118.938 39.875 118.625C39.9375 118.875 40 119.125 40.0625 119.375C40.3125 120.75 40.375 122.188 40.1875 123.562ZM41.3125 116.812C41.125 116.875 41 116.938 40.8125 117C40.375 115.625 39.8125 114.312 39.1875 113C39.8125 111.75 40.3125 110.438 40.75 109.062C41.0625 109.188 41.375 109.25 41.6875 109.375C44.5625 110.375 46.625 111.875 46.625 113C46.625 114.188 44.4375 115.812 41.3125 116.812ZM32 115.875C33.5625 115.875 34.8125 114.625 34.8125 113C34.8125 111.438 33.5625 110.188 32 110.188C30.375 110.188 29.125 111.438 29.125 113C29.125 114.625 30.375 115.875 32 115.875Z" fill="#2A7AE4"/>
<path d="M17.184 154V142.64H22.208C22.7307 142.64 23.2107 142.752 23.648 142.976C24.096 143.189 24.48 143.477 24.8 143.84C25.12 144.192 25.3707 144.597 25.552 145.056C25.7333 145.504 25.824 145.957 25.824 146.416C25.824 147.152 25.6373 147.824 25.264 148.432C24.9013 149.029 24.4053 149.461 23.776 149.728L26.368 154H23.888L21.568 150.192H19.392V154H17.184ZM19.392 148.256H22.16C22.3627 148.256 22.5493 148.208 22.72 148.112C22.9013 148.016 23.056 147.888 23.184 147.728C23.312 147.557 23.4133 147.36 23.488 147.136C23.5627 146.912 23.6 146.672 23.6 146.416C23.6 146.149 23.5573 145.904 23.472 145.68C23.3867 145.456 23.2693 145.264 23.12 145.104C22.9813 144.933 22.816 144.805 22.624 144.72C22.4427 144.624 22.256 144.576 22.064 144.576H19.392V148.256ZM31.2703 154.16C30.5983 154.16 29.9903 154.048 29.4463 153.824C28.9023 153.589 28.4383 153.275 28.0543 152.88C27.6703 152.485 27.3716 152.027 27.1583 151.504C26.9556 150.981 26.8543 150.432 26.8543 149.856C26.8543 149.259 26.9556 148.699 27.1583 148.176C27.3609 147.643 27.6543 147.179 28.0383 146.784C28.4223 146.379 28.8863 146.059 29.4303 145.824C29.9849 145.589 30.6036 145.472 31.2863 145.472C31.9689 145.472 32.5769 145.589 33.1103 145.824C33.6543 146.059 34.1129 146.373 34.4862 146.768C34.8703 147.163 35.1583 147.621 35.3503 148.144C35.5529 148.667 35.6543 149.211 35.6543 149.776C35.6543 149.915 35.6489 150.048 35.6383 150.176C35.6383 150.304 35.6276 150.411 35.6063 150.496H29.1263C29.1583 150.827 29.2383 151.12 29.3663 151.376C29.4943 151.632 29.6596 151.851 29.8623 152.032C30.0649 152.213 30.2943 152.352 30.5503 152.448C30.8063 152.544 31.0729 152.592 31.3503 152.592C31.7769 152.592 32.1769 152.491 32.5503 152.288C32.9343 152.075 33.1956 151.797 33.3343 151.456L35.1743 151.968C34.8649 152.608 34.3689 153.136 33.6863 153.552C33.0143 153.957 32.2089 154.16 31.2703 154.16ZM33.4463 149.104C33.3929 148.475 33.1583 147.973 32.7423 147.6C32.3369 147.216 31.8409 147.024 31.2543 147.024C30.9663 147.024 30.6943 147.077 30.4383 147.184C30.1929 147.28 29.9743 147.419 29.7823 147.6C29.5903 147.781 29.4303 148 29.3023 148.256C29.1849 148.512 29.1156 148.795 29.0943 149.104H33.4463ZM39.2484 154.16C38.843 154.16 38.4644 154.096 38.1124 153.968C37.7604 153.829 37.4564 153.643 37.2004 153.408C36.9444 153.163 36.7417 152.88 36.5924 152.56C36.4537 152.24 36.3844 151.888 36.3844 151.504C36.3844 151.109 36.4697 150.747 36.6404 150.416C36.8217 150.075 37.067 149.787 37.3764 149.552C37.6964 149.317 38.075 149.136 38.5124 149.008C38.9497 148.869 39.4297 148.8 39.9524 148.8C40.3257 148.8 40.6884 148.832 41.0404 148.896C41.403 148.96 41.723 149.051 42.0004 149.168V148.688C42.0004 148.133 41.8404 147.707 41.5204 147.408C41.211 147.109 40.747 146.96 40.1284 146.96C39.6804 146.96 39.243 147.04 38.8164 147.2C38.3897 147.36 37.9524 147.595 37.5044 147.904L36.8484 146.544C37.9257 145.829 39.0884 145.472 40.3364 145.472C41.5417 145.472 42.475 145.771 43.1364 146.368C43.8084 146.955 44.1444 147.808 44.1444 148.928V151.536C44.1444 151.76 44.1817 151.92 44.2564 152.016C44.3417 152.112 44.475 152.165 44.6564 152.176V154C44.2937 154.075 43.979 154.112 43.7124 154.112C43.307 154.112 42.9924 154.021 42.7684 153.84C42.555 153.659 42.4217 153.419 42.3684 153.12L42.3204 152.656C41.947 153.147 41.4937 153.52 40.9604 153.776C40.427 154.032 39.8564 154.16 39.2484 154.16ZM39.8564 152.592C40.219 152.592 40.5604 152.528 40.8804 152.4C41.211 152.272 41.467 152.101 41.6484 151.888C41.883 151.707 42.0004 151.504 42.0004 151.28V150.32C41.7444 150.224 41.467 150.149 41.1684 150.096C40.8697 150.032 40.5817 150 40.3044 150C39.7497 150 39.2964 150.128 38.9444 150.384C38.5924 150.629 38.4164 150.944 38.4164 151.328C38.4164 151.691 38.555 151.995 38.8324 152.24C39.1097 152.475 39.451 152.592 39.8564 152.592ZM45.6199 149.808C45.6199 149.221 45.7212 148.667 45.9239 148.144C46.1265 147.621 46.4199 147.163 46.8039 146.768C47.1879 146.373 47.6519 146.059 48.1959 145.824C48.7399 145.589 49.3532 145.472 50.0359 145.472C50.9532 145.472 51.7319 145.669 52.3719 146.064C53.0225 146.459 53.5079 146.976 53.8279 147.616L51.7319 148.256C51.5505 147.947 51.3105 147.712 51.0119 147.552C50.7132 147.381 50.3825 147.296 50.0199 147.296C49.7105 147.296 49.4225 147.36 49.1559 147.488C48.8892 147.605 48.6545 147.776 48.4519 148C48.2599 148.213 48.1052 148.475 47.9879 148.784C47.8812 149.093 47.8279 149.435 47.8279 149.808C47.8279 150.181 47.8865 150.523 48.0039 150.832C48.1212 151.141 48.2759 151.408 48.4679 151.632C48.6705 151.856 48.9052 152.032 49.1719 152.16C49.4385 152.277 49.7212 152.336 50.0199 152.336C50.4039 152.336 50.7559 152.24 51.0759 152.048C51.4065 151.856 51.6359 151.621 51.7639 151.344L53.8599 151.984C53.5719 152.624 53.0972 153.147 52.4359 153.552C51.7745 153.957 50.9799 154.16 50.0519 154.16C49.3692 154.16 48.7559 154.043 48.2119 153.808C47.6679 153.573 47.2039 153.259 46.8199 152.864C46.4359 152.459 46.1372 151.995 45.9239 151.472C45.7212 150.939 45.6199 150.384 45.6199 149.808ZM60.2031 153.568C59.9151 153.696 59.5631 153.824 59.1471 153.952C58.7311 154.08 58.2938 154.144 57.8351 154.144C57.5365 154.144 57.2538 154.107 56.9871 154.032C56.7311 153.957 56.5018 153.84 56.2991 153.68C56.1071 153.509 55.9525 153.296 55.8351 153.04C55.7178 152.773 55.6591 152.453 55.6591 152.08V147.264H54.5551V145.616H55.6591V142.896H57.8031V145.616H59.5631V147.264H57.8031V151.36C57.8031 151.659 57.8778 151.872 58.0271 152C58.1871 152.117 58.3791 152.176 58.6031 152.176C58.8271 152.176 59.0458 152.139 59.2591 152.064C59.4725 151.989 59.6431 151.925 59.7711 151.872L60.2031 153.568Z" fill="#464646"/>
</svg>
