<?xml version="1.0" encoding="iso-8859-1"?>
<!-- Uploaded to: SVG Repo, www.svgrepo.com, Generator: SVG Repo Mixer Tools -->
<svg fill="#000000" height="800px" width="800px" version="1.1" id="Layer_1" xmlns="http://www.w3.org/2000/svg" xmlns:xlink="http://www.w3.org/1999/xlink" 
	 viewBox="0 0 496 496" xml:space="preserve">
<g>
	<g>
		<g>
			<path d="M120,256C53.832,256,0,309.832,0,376s53.832,120,120,120s120-53.832,120-120S186.168,256,120,256z M200.224,309.888
				L185.84,345.84l-32.64,13.056L128,340v-40l28.392-21.296C173.608,285.16,188.72,295.952,200.224,309.888z M143.168,371.376
				L137.448,400H102.56l-5.728-28.624L120,354L143.168,371.376z M120,272c5.704,0,11.256,0.584,16.712,1.472L120,286l-16.712-12.528
				C108.744,272.584,114.296,272,120,272z M83.608,278.704L112,300v40l-25.2,18.904l-32.64-13.056l-14.384-35.952
				C51.28,295.952,66.392,285.16,83.608,278.704z M28.936,325.88l9.432,23.584l-21.912,17.528
				C17.736,352.192,22.088,338.264,28.936,325.88z M32.504,432c-8.464-13.176-14.08-28.344-15.856-44.672L49.36,361.16
				l31.648,12.656l6.456,32.248L68,432H32.504z M45.128,448h21.456l8.696,21.752C63.952,464.32,53.744,456.96,45.128,448z
				 M144.608,476.936C136.704,478.864,128.488,480,120,480c-8.488,0-16.704-1.136-24.608-3.064L81.096,441.2L100,416h40l18.904,25.2
				L144.608,476.936z M164.712,469.752L173.416,448h21.456C186.256,456.96,176.048,464.32,164.712,469.752z M207.504,432H172v0
				l-19.456-25.936L159,373.816l32.296-12.92l32.488,19.496C222.984,399.336,217.152,416.976,207.504,432z M222.816,361.16
				l-20.856-12.512l9.104-22.776C217,336.616,220.992,348.536,222.816,361.16z"/>
			<path d="M424,144h-10.84C429.504,130.792,440,110.608,440,88V64c0-35.288-28.712-64-64-64h-16c-35.288,0-64,28.712-64,64v24
				c0,22.608,10.496,42.792,26.84,56H312c-39.704,0-72,32.296-72,72v80c0,26.472,21.528,48,48,48v152h160V344
				c26.472,0,48-21.528,48-48v-80C496,176.296,463.704,144,424,144z M312,64c0-26.472,21.528-48,48-48h16c26.472,0,48,21.528,48,48
				v13.024c-1.96-1.648-3.464-3.848-4.12-6.464l-0.24-0.976C416.472,56.872,405.104,48,392,48h-48
				c-13.104,0-24.472,8.872-27.648,21.608l-0.224,0.928c-0.664,2.632-2.168,4.832-4.128,6.488V64z M312.432,94.664
				c9.32-2.888,16.744-10.384,19.216-20.272l0.224-0.928C333.272,67.888,338.256,64,344,64h48c5.744,0,10.728,3.888,12.12,9.44
				l0.24,0.976c2.464,9.872,9.888,17.36,19.208,20.248C420.256,122.408,396.616,144,368,144
				C339.384,144,315.744,122.4,312.432,94.664z M390.528,160c-3.312,9.288-12.112,16-22.528,16s-19.216-6.712-22.528-16H390.528z
				 M288,328c-17.648,0-32-14.352-32-32v-16h32V328z M288,264h-32v-16h32V264z M360,480h-56v-80h56V480z M432,480h-56v-80h56V480z
				 M432,384h-56v-24h-16v24h-56v-56h128V384z M480,296c0,17.648-14.352,32-32,32v-48h32V296z M480,264h-32v-16h32V264z M480,232
				h-32v-32h-16v112H304V200h-16v32h-32v-16c0-30.872,25.128-56,56-56h16.808c3.72,18.232,19.872,32,39.192,32
				c19.32,0,35.472-13.768,39.192-32H424c30.872,0,56,25.128,56,56V232z"/>
			<path d="M384,208h-32c-8.824,0-16,7.176-16,16v56c0,8.824,7.176,16,16,16h32c8.824,0,16-7.176,16-16v-56
				C400,215.176,392.824,208,384,208z M352,280v-56h32l0.016,56H352z"/>
		</g>
	</g>
</g>
</svg>